<?xml version="1.0" encoding="UTF-8"?>
<mxfile host="app.diagrams.net" agent="Mozilla/5.0 (Macintosh; Intel Mac OS X 10_15_7) AppleWebKit/537.36 (KHTML, like Gecko) Chrome/136.0.0.0 Safari/537.36" version="27.0.9">
  <diagram name="Page-1" id="_DU3UJ2VPLIhRH7_tCxT">
    <mxGraphModel dx="1558" dy="863" grid="1" gridSize="10" guides="1" tooltips="1" connect="1" arrows="1" fold="1" page="1" pageScale="1" pageWidth="827" pageHeight="1169" math="0" shadow="0">
      <root>
        <mxCell id="0" />
        <mxCell id="1" parent="0" />
        <mxCell id="nKPqigomOzefVCcj-c3Q-1" value="Organizer" style="shape=umlLifeline;perimeter=lifelinePerimeter;whiteSpace=wrap;container=1;dropTarget=0;collapsible=0;recursiveResize=0;outlineConnect=0;portConstraint=eastwest;newEdgeStyle={&quot;edgeStyle&quot;:&quot;elbowEdgeStyle&quot;,&quot;elbow&quot;:&quot;vertical&quot;,&quot;curved&quot;:0,&quot;rounded&quot;:0};size=65;" parent="1" vertex="1">
          <mxGeometry x="20" y="20" width="150" height="712" as="geometry" />
        </mxCell>
        <mxCell id="nKPqigomOzefVCcj-c3Q-2" value="Server" style="shape=umlLifeline;perimeter=lifelinePerimeter;whiteSpace=wrap;container=1;dropTarget=0;collapsible=0;recursiveResize=0;outlineConnect=0;portConstraint=eastwest;newEdgeStyle={&quot;edgeStyle&quot;:&quot;elbowEdgeStyle&quot;,&quot;elbow&quot;:&quot;vertical&quot;,&quot;curved&quot;:0,&quot;rounded&quot;:0};size=65;" parent="1" vertex="1">
          <mxGeometry x="417" y="20" width="150" height="712" as="geometry" />
        </mxCell>
        <mxCell id="nKPqigomOzefVCcj-c3Q-3" value="EMQXBroker" style="shape=umlLifeline;perimeter=lifelinePerimeter;whiteSpace=wrap;container=1;dropTarget=0;collapsible=0;recursiveResize=0;outlineConnect=0;portConstraint=eastwest;newEdgeStyle={&quot;edgeStyle&quot;:&quot;elbowEdgeStyle&quot;,&quot;elbow&quot;:&quot;vertical&quot;,&quot;curved&quot;:0,&quot;rounded&quot;:0};size=65;" parent="1" vertex="1">
          <mxGeometry x="824" y="20" width="150" height="712" as="geometry" />
        </mxCell>
        <mxCell id="nKPqigomOzefVCcj-c3Q-4" value="ScreenGroup" style="shape=umlLifeline;perimeter=lifelinePerimeter;whiteSpace=wrap;container=1;dropTarget=0;collapsible=0;recursiveResize=0;outlineConnect=0;portConstraint=eastwest;newEdgeStyle={&quot;edgeStyle&quot;:&quot;elbowEdgeStyle&quot;,&quot;elbow&quot;:&quot;vertical&quot;,&quot;curved&quot;:0,&quot;rounded&quot;:0};size=65;" parent="1" vertex="1">
          <mxGeometry x="1024" y="20" width="150" height="712" as="geometry" />
        </mxCell>
        <mxCell id="nKPqigomOzefVCcj-c3Q-5" value="Screen1" style="shape=umlLifeline;perimeter=lifelinePerimeter;whiteSpace=wrap;container=1;dropTarget=0;collapsible=0;recursiveResize=0;outlineConnect=0;portConstraint=eastwest;newEdgeStyle={&quot;edgeStyle&quot;:&quot;elbowEdgeStyle&quot;,&quot;elbow&quot;:&quot;vertical&quot;,&quot;curved&quot;:0,&quot;rounded&quot;:0};size=65;" parent="1" vertex="1">
          <mxGeometry x="1224" y="20" width="150" height="712" as="geometry" />
        </mxCell>
        <mxCell id="nKPqigomOzefVCcj-c3Q-6" value="Screen2" style="shape=umlLifeline;perimeter=lifelinePerimeter;whiteSpace=wrap;container=1;dropTarget=0;collapsible=0;recursiveResize=0;outlineConnect=0;portConstraint=eastwest;newEdgeStyle={&quot;edgeStyle&quot;:&quot;elbowEdgeStyle&quot;,&quot;elbow&quot;:&quot;vertical&quot;,&quot;curved&quot;:0,&quot;rounded&quot;:0};size=65;" parent="1" vertex="1">
          <mxGeometry x="1428" y="20" width="150" height="712" as="geometry" />
        </mxCell>
        <mxCell id="nKPqigomOzefVCcj-c3Q-7" value="selectSlideshowOnTarget(slideshow, groupA)" style="verticalAlign=bottom;edgeStyle=elbowEdgeStyle;elbow=vertical;curved=0;rounded=0;endArrow=block;" parent="1" source="nKPqigomOzefVCcj-c3Q-1" target="nKPqigomOzefVCcj-c3Q-2" edge="1">
          <mxGeometry relative="1" as="geometry">
            <Array as="points">
              <mxPoint x="302" y="123" />
            </Array>
          </mxGeometry>
        </mxCell>
        <mxCell id="nKPqigomOzefVCcj-c3Q-8" value="updateDisplay(slideshow)" style="verticalAlign=bottom;edgeStyle=elbowEdgeStyle;elbow=vertical;curved=0;rounded=0;endArrow=block;" parent="1" source="nKPqigomOzefVCcj-c3Q-2" target="nKPqigomOzefVCcj-c3Q-4" edge="1">
          <mxGeometry relative="1" as="geometry">
            <Array as="points">
              <mxPoint x="804" y="171" />
            </Array>
          </mxGeometry>
        </mxCell>
        <mxCell id="nKPqigomOzefVCcj-c3Q-9" value="publish(&quot;group/groupA&quot;, { slideshowId: &quot;xxx&quot; })" style="verticalAlign=bottom;edgeStyle=elbowEdgeStyle;elbow=vertical;curved=0;rounded=0;endArrow=block;" parent="1" source="nKPqigomOzefVCcj-c3Q-2" target="nKPqigomOzefVCcj-c3Q-3" edge="1">
          <mxGeometry relative="1" as="geometry">
            <Array as="points">
              <mxPoint x="704" y="219" />
            </Array>
          </mxGeometry>
        </mxCell>
        <mxCell id="nKPqigomOzefVCcj-c3Q-10" value="receive message on topic &quot;group/groupA&quot;" style="verticalAlign=bottom;edgeStyle=elbowEdgeStyle;elbow=vertical;curved=0;rounded=0;endArrow=block;" parent="1" source="nKPqigomOzefVCcj-c3Q-3" target="nKPqigomOzefVCcj-c3Q-5" edge="1">
          <mxGeometry relative="1" as="geometry">
            <Array as="points">
              <mxPoint x="1108" y="267" />
            </Array>
          </mxGeometry>
        </mxCell>
        <mxCell id="nKPqigomOzefVCcj-c3Q-11" value="receive message on topic &quot;group/groupA&quot;" style="verticalAlign=bottom;edgeStyle=elbowEdgeStyle;elbow=vertical;curved=0;rounded=0;endArrow=block;" parent="1" source="nKPqigomOzefVCcj-c3Q-3" target="nKPqigomOzefVCcj-c3Q-6" edge="1">
          <mxGeometry relative="1" as="geometry">
            <Array as="points">
              <mxPoint x="1210" y="315" />
            </Array>
          </mxGeometry>
        </mxCell>
        <mxCell id="nKPqigomOzefVCcj-c3Q-12" value="parse message and load new Slideshow" style="curved=1;endArrow=block;rounded=0;" parent="1" source="nKPqigomOzefVCcj-c3Q-5" target="nKPqigomOzefVCcj-c3Q-5" edge="1">
          <mxGeometry relative="1" as="geometry">
            <Array as="points">
              <mxPoint x="1350" y="363" />
              <mxPoint x="1350" y="393" />
            </Array>
          </mxGeometry>
        </mxCell>
        <mxCell id="nKPqigomOzefVCcj-c3Q-13" value="update UI with new content" style="curved=1;endArrow=block;rounded=0;" parent="1" source="nKPqigomOzefVCcj-c3Q-5" target="nKPqigomOzefVCcj-c3Q-5" edge="1">
          <mxGeometry relative="1" as="geometry">
            <Array as="points">
              <mxPoint x="1350" y="441" />
              <mxPoint x="1350" y="471" />
            </Array>
          </mxGeometry>
        </mxCell>
        <mxCell id="nKPqigomOzefVCcj-c3Q-14" value="parse message and load new Slideshow" style="curved=1;endArrow=block;rounded=0;" parent="1" source="nKPqigomOzefVCcj-c3Q-6" target="nKPqigomOzefVCcj-c3Q-6" edge="1">
          <mxGeometry relative="1" as="geometry">
            <Array as="points">
              <mxPoint x="1554" y="519" />
              <mxPoint x="1554" y="549" />
            </Array>
          </mxGeometry>
        </mxCell>
        <mxCell id="nKPqigomOzefVCcj-c3Q-15" value="update UI with new content" style="curved=1;endArrow=block;rounded=0;" parent="1" source="nKPqigomOzefVCcj-c3Q-6" target="nKPqigomOzefVCcj-c3Q-6" edge="1">
          <mxGeometry relative="1" as="geometry">
            <Array as="points">
              <mxPoint x="1554" y="597" />
              <mxPoint x="1554" y="627" />
            </Array>
          </mxGeometry>
        </mxCell>
      </root>
    </mxGraphModel>
  </diagram>
</mxfile>
